# xmcd CD database file
# Copyright (C) 1993-1998 Ti Kan
# 
# Track frame offsets:
#     300
#     15318
#     31557
#     47719
#     64813
#     89530
#     109745
#     126050
#     142771
#     161396
#     172927
#     190664
#     199098
#     217900
#     236974
#     252241
#     266473
# 
# Disc length: 3797 seconds
# 
# Revision: 1
# Processed by: cddbd v1.4b41PL1 Copyright (c) Steve Scherf et al.
# Submitted via: DiscPlay 4.0.4
# 
DISCID=da0ed111
DTITLE=Randy Lee Ashcraft and the Salt Water Cowboys - Randy Lee Ashcraft LI
DTITLE=VE
DYEAR=1900
DGENRE=
TTITLE0=Left Me Right
TTITLE1=Fall in Love Tonight
TTITLE2=Old Memory
TTITLE3=Easier Said Than Done
TTITLE4=Can't You See
TTITLE5=I Don't Want To Be Alone Tonight
TTITLE6=Before The Rain Begins
TTITLE7=Ain't That Peculiar
TTITLE8=If There's Any Justice
TTITLE9=For Goodness Sake
TTITLE10=First Time Since April
TTITLE11=Djembe Solo
TTITLE12=Tame My Heart
TTITLE13=What Should I do?
TTITLE14=Brown Eyed Girl
TTITLE15=Ol' Blue
TTITLE16=Go Lassie Go (Wild Mountain Thyme)
EXTD=
EXTT0=Original Composition\n
EXTT1=Original Composition\n
EXTT2=
EXTT3=Original Composition\n
EXTT4=
EXTT5=Original Composition\n
EXTT6=Original Composition\n
EXTT7=
EXTT8=
EXTT9=Original Composition\n
EXTT10=
EXTT11=
EXTT12=Original Composition\n
EXTT13=Original Composition\n
EXTT14=
EXTT15=
EXTT16=
PLAYORDER=
